# Blender v2.76 (sub 0) OBJ File: 'forest.blend'
# www.blender.org
o Cube.003
v -2.582972 -0.346280 -2.475276
v -2.582972 0.760256 -2.475276
v -2.642646 -0.346280 -2.557302
v -2.642646 0.760256 -2.557302
v -2.500946 -0.346280 -2.534949
v -2.500946 0.760256 -2.534949
v -2.560619 -0.346280 -2.616976
v -2.560619 0.760256 -2.616976
v -2.896235 0.761390 -2.232624
v -2.896235 1.106352 -2.232624
v -2.972236 0.761390 -2.337094
v -2.972236 1.106352 -2.337094
v -2.231584 0.761390 -2.716151
v -2.231584 1.106352 -2.716151
v -2.307585 0.761390 -2.820621
v -2.307585 1.106352 -2.820621
v -2.108769 0.944310 -2.965257
v -2.032768 0.947809 -2.860787
vt 0.054846 0.411467
vt 0.353514 0.529250
vt 0.362323 0.796746
vt 0.424192 0.980886
vt 0.404925 0.754171
vt 0.591879 0.778255
vt 0.164319 0.752538
vt 0.238580 0.934015
vt 0.045257 0.975987
vt 0.264171 0.641856
vt 0.424192 0.610567
vt 0.015835 0.506874
vt 0.162076 0.425565
vt 0.032003 0.145328
vt 0.230632 0.183635
vt 0.656570 0.015835
vt 0.616358 0.089402
vt 0.957166 0.052910
vt 0.849549 0.156729
vt 0.701756 0.116241
vt 0.440074 0.382006
vt 0.859837 0.350164
vt 0.954204 0.549327
vt 0.591879 0.980886
vt 0.591879 0.610567
vt 0.029753 0.000086
vn -0.808700 0.000000 0.588300
vn -0.588300 0.000000 -0.808700
vn 0.808700 0.000000 -0.588300
vn 0.588300 0.000000 0.808700
vn 0.000000 -1.000000 -0.000000
vn 0.000000 1.000000 0.000000
vn 0.501200 -0.796700 -0.337900
vn 0.438200 0.840400 -0.318800
vn 0.482700 -0.802300 -0.351200
vn 0.431600 0.834800 -0.341900
s off
f 4/1/1 3/2/1 1/3/1
f 8/4/2 7/5/2 3/6/2
f 6/7/3 5/8/3 7/9/3
f 2/10/4 1/3/4 5/8/4
f 3/6/5 7/5/5 5/11/5
f 8/12/6 4/1/6 2/10/6
f 12/13/1 11/14/1 9/15/1
f 16/16/2 15/17/2 11/14/2
f 17/18/7 18/19/7 13/20/7
f 10/21/4 13/20/4 14/22/4
f 9/15/5 11/14/5 15/17/5
f 14/22/6 16/23/6 12/13/6
f 16/23/8 14/22/8 18/19/8
f 2/10/1 4/1/1 1/3/1
f 4/24/2 8/4/2 3/6/2
f 8/12/3 6/7/3 7/9/3
f 6/7/4 2/10/4 5/8/4
f 1/25/5 3/6/5 5/11/5
f 6/7/6 8/12/6 2/10/6
f 10/21/1 12/13/1 9/15/1
f 11/14/2 12/26/2 16/16/2
f 16/16/2 17/18/2 15/17/2
f 15/17/9 17/18/9 13/20/9
f 18/19/4 14/22/4 13/20/4
f 10/21/4 9/15/4 13/20/4
f 13/20/5 9/15/5 15/17/5
f 10/21/6 14/22/6 12/13/6
f 17/18/10 16/23/10 18/19/10
