# Blender v2.76 (sub 0) OBJ File: ''
# www.blender.org
o Sphere
v -0.382683 0.923880 0.000000
v -0.707107 0.707107 0.000000
v -0.923880 0.382683 0.000000
v -1.000000 -0.000000 0.000000
v -0.923880 -0.382684 0.000000
v -0.707107 -0.707107 0.000000
v -0.382683 -0.923880 0.000000
v -0.270598 0.923880 -0.270598
v -0.500000 0.707107 -0.500000
v -0.653282 0.382683 -0.653281
v -0.707107 -0.000000 -0.707107
v -0.653282 -0.382684 -0.653281
v -0.500000 -0.707107 -0.500000
v -0.270598 -0.923880 -0.270598
v -0.000000 0.923880 -0.382683
v -0.000000 0.707107 -0.707107
v -0.000000 0.382683 -0.923879
v -0.000000 -0.000000 -1.000000
v -0.000000 -0.382684 -0.923879
v -0.000000 -0.707107 -0.707107
v -0.000000 -0.923880 -0.382683
v -0.000000 1.000000 0.000000
v 0.270598 0.923880 -0.270598
v 0.500000 0.707107 -0.500000
v 0.653281 0.382683 -0.653281
v 0.707106 -0.000000 -0.707107
v 0.653281 -0.382684 -0.653281
v 0.500000 -0.707107 -0.500000
v 0.270598 -0.923880 -0.270598
v 0.382683 0.923880 -0.000000
v 0.707106 0.707107 -0.000000
v 0.923879 0.382683 -0.000000
v 1.000000 -0.000000 -0.000000
v 0.923879 -0.382684 -0.000000
v 0.707106 -0.707107 -0.000000
v 0.382683 -0.923880 -0.000000
v -0.000000 -1.000000 0.000000
v 0.270598 0.923880 0.270598
v 0.500000 0.707107 0.500000
v 0.653281 0.382683 0.653281
v 0.707106 -0.000000 0.707107
v 0.653281 -0.382684 0.653281
v 0.500000 -0.707107 0.500000
v 0.270598 -0.923880 0.270598
v -0.000000 0.923880 0.382683
v -0.000000 0.707107 0.707107
v -0.000000 0.382683 0.923879
v -0.000000 -0.000000 1.000000
v -0.000000 -0.382684 0.923879
v -0.000000 -0.707107 0.707107
v -0.000000 -0.923880 0.382683
v -0.270598 0.923880 0.270598
v -0.500000 0.707107 0.500000
v -0.653281 0.382683 0.653281
v -0.707107 -0.000000 0.707107
v -0.653281 -0.382684 0.653281
v -0.500000 -0.707107 0.500000
v -0.270598 -0.923880 0.270598
vt 0.814125 0.376821
vt 0.702878 0.376821
vt 0.702878 0.231397
vt 0.814125 0.634556
vt 0.702878 0.634556
vt 0.702878 0.498853
vt 0.814125 0.943861
vt 0.702878 0.943861
vt 0.702878 0.769812
vt 0.816078 0.088741
vt 0.814125 0.231397
vt 0.814125 0.498853
vt 0.814125 0.769812
vt 0.599964 0.943861
vt 0.599964 0.769812
vt 0.708737 0.084913
vt 0.599964 0.231397
vt 0.599964 0.498853
vt 0.599964 0.376821
vt 0.599964 0.634556
vt 0.485591 0.231397
vt 0.485591 0.091563
vt 0.485591 0.498853
vt 0.485591 0.376821
vt 0.485591 0.769812
vt 0.485591 0.634556
vt 0.485591 0.943861
vt 0.373792 0.376821
vt 0.373792 0.634556
vt 0.373792 0.943861
vt 0.373792 0.769812
vt 0.373792 0.231397
vt 0.373792 0.091888
vt 0.373792 0.498853
vt 0.261118 0.376821
vt 0.261118 0.634556
vt 0.261118 0.943861
vt 0.261118 0.769812
vt 0.261118 0.231397
vt 0.261118 0.092107
vt 0.261118 0.498853
vt 0.156847 0.231397
vt 0.156847 0.092966
vt 0.156847 0.498853
vt 0.156847 0.376821
vt 0.156847 0.769812
vt 0.156847 0.634556
vt 0.156847 0.943861
vt 0.013896 0.498853
vt 0.016965 0.376821
vt 0.014545 0.769812
vt 0.017445 0.634556
vt 0.014545 0.943861
vt 0.016956 0.231397
vt 0.016498 0.090878
vt 0.525374 0.004468
vt 0.470096 0.992589
vt 0.599964 0.089042
vt 0.947104 0.043059
vt 0.782798 0.045232
vt 0.941944 0.085154
vt 0.976126 0.087559
vt 0.984587 0.376821
vt 0.985527 0.498853
vt 0.991947 0.634556
vt 0.994168 0.769812
vt 0.987800 0.943861
vt 0.982558 0.231397
vn -0.930300 -0.366800 0.000000
vn -0.657800 -0.366800 -0.657800
vn -0.515900 -0.683800 -0.515900
vn -0.930300 0.366800 0.000000
vn -0.657800 0.366800 -0.657800
vn -0.707100 0.000000 -0.707100
vn -0.422600 0.906300 0.000000
vn -0.298800 0.906300 -0.298800
vn -0.515900 0.683800 -0.515900
vn -0.422600 -0.906300 0.000000
vn -0.729600 -0.683800 0.000000
vn -1.000000 0.000000 0.000000
vn -0.729600 0.683800 0.000000
vn 0.000000 0.906300 -0.422600
vn 0.000000 0.683800 -0.729600
vn -0.298800 -0.906300 -0.298800
vn 0.000000 -0.683800 -0.729600
vn 0.000000 0.000000 -1.000000
vn 0.000000 -0.366800 -0.930300
vn 0.000000 0.366800 -0.930300
vn 0.515900 -0.683800 -0.515900
vn 0.298800 -0.906300 -0.298800
vn 0.707100 0.000000 -0.707100
vn 0.657800 -0.366800 -0.657800
vn 0.515900 0.683800 -0.515900
vn 0.657800 0.366800 -0.657800
vn 0.298800 0.906300 -0.298800
vn 0.930300 -0.366800 0.000000
vn 0.930300 0.366800 0.000000
vn 0.422600 0.906300 0.000000
vn 0.729600 0.683800 0.000000
vn 0.729600 -0.683800 0.000000
vn 0.422600 -0.906300 0.000000
vn 1.000000 0.000000 0.000000
vn 0.657800 -0.366800 0.657800
vn 0.657800 0.366800 0.657800
vn 0.298800 0.906300 0.298800
vn 0.515900 0.683800 0.515900
vn 0.515900 -0.683800 0.515900
vn 0.298800 -0.906300 0.298800
vn 0.707100 0.000000 0.707100
vn 0.000000 -0.683800 0.729600
vn 0.000000 -0.906300 0.422600
vn 0.000000 0.000000 1.000000
vn 0.000000 -0.366800 0.930300
vn 0.000000 0.683800 0.729600
vn 0.000000 0.366800 0.930300
vn 0.000000 0.906300 0.422600
vn -0.707100 0.000000 0.707100
vn -0.657800 -0.366800 0.657800
vn -0.515900 0.683800 0.515900
vn -0.657800 0.366800 0.657800
vn -0.298800 0.906300 0.298800
vn -0.515900 -0.683800 0.515900
vn -0.298800 -0.906300 0.298800
vn 0.000000 -1.000000 0.000000
vn 0.000000 1.000000 0.000000
vn 0.000000 -0.906300 -0.422600
s 1
f 5/1/1 12/2/2 13/3/3
f 3/4/4 10/5/5 11/6/6
f 1/7/7 8/8/8 9/9/9
f 7/10/10 6/11/11 13/3/3
f 4/12/12 11/6/6 12/2/2
f 2/13/13 9/9/9 10/5/5
f 8/8/8 15/14/14 16/15/15
f 14/16/16 13/3/3 20/17/17
f 11/6/6 18/18/18 19/19/19
f 9/9/9 16/15/15 17/20/20
f 12/2/2 19/19/19 20/17/17
f 11/6/6 10/5/5 17/20/20
f 20/17/17 28/21/21 29/22/22
f 18/18/18 26/23/23 27/24/24
f 16/15/15 24/25/25 25/26/26
f 20/17/17 19/19/19 27/24/24
f 18/18/18 17/20/20 25/26/26
f 15/14/14 23/27/27 24/25/25
f 28/21/21 27/24/24 34/28/28
f 26/23/23 25/26/26 32/29/29
f 23/27/27 30/30/30 31/31/31
f 28/21/21 35/32/32 36/33/33
f 26/23/23 33/34/34 34/28/28
f 24/25/25 31/31/31 32/29/29
f 35/32/32 34/28/28 42/35/35
f 33/34/34 32/29/29 40/36/36
f 30/30/30 38/37/37 39/38/38
f 35/32/32 43/39/39 44/40/40
f 33/34/34 41/41/41 42/35/35
f 31/31/31 39/38/38 40/36/36
f 43/39/39 50/42/42 51/43/43
f 41/41/41 48/44/44 49/45/45
f 39/38/38 46/46/46 47/47/47
f 43/39/39 42/35/35 49/45/45
f 41/41/41 40/36/36 47/47/47
f 38/37/37 45/48/48 46/46/46
f 48/44/44 55/49/49 56/50/50
f 46/46/46 53/51/51 54/52/52
f 50/42/42 49/45/45 56/50/50
f 48/44/44 47/47/47 54/52/52
f 45/48/48 52/53/53 53/51/51
f 50/42/42 57/54/54 58/55/55
f 37/56/56 7/10/10 14/16/16
f 1/7/7 22/57/57 8/8/8
f 8/8/8 22/57/57 15/14/14
f 37/56/56 14/16/16 21/58/58
f 15/14/14 22/57/57 23/27/27
f 37/56/56 21/58/58 29/22/22
f 23/27/27 22/57/57 30/30/30
f 37/56/56 29/22/22 36/59/33
f 30/30/30 22/57/57 38/37/37
f 37/56/56 36/59/33 44/60/40
f 38/37/37 22/57/57 45/48/48
f 37/56/56 44/60/40 51/61/43
f 45/48/48 22/57/57 52/53/53
f 37/56/56 51/61/43 58/62/55
f 37/56/56 58/62/55 7/10/10
f 56/63/50 5/1/1 6/11/11
f 55/64/49 54/65/52 3/4/4
f 53/66/51 52/67/53 1/7/7
f 57/68/54 6/11/11 7/10/10
f 55/64/49 4/12/12 5/1/1
f 54/65/52 53/66/51 2/13/13
f 52/67/53 22/57/57 1/7/7
f 6/11/11 5/1/1 13/3/3
f 4/12/12 3/4/4 11/6/6
f 2/13/13 1/7/7 9/9/9
f 14/16/16 7/10/10 13/3/3
f 5/1/1 4/12/12 12/2/2
f 3/4/4 2/13/13 10/5/5
f 9/9/9 8/8/8 16/15/15
f 21/58/58 14/16/16 20/17/17
f 12/2/2 11/6/6 19/19/19
f 10/5/5 9/9/9 17/20/20
f 13/3/3 12/2/2 20/17/17
f 18/18/18 11/6/6 17/20/20
f 21/58/58 20/17/17 29/22/22
f 19/19/19 18/18/18 27/24/24
f 17/20/20 16/15/15 25/26/26
f 28/21/21 20/17/17 27/24/24
f 26/23/23 18/18/18 25/26/26
f 16/15/15 15/14/14 24/25/25
f 35/32/32 28/21/21 34/28/28
f 33/34/34 26/23/23 32/29/29
f 24/25/25 23/27/27 31/31/31
f 29/22/22 28/21/21 36/33/33
f 27/24/24 26/23/23 34/28/28
f 25/26/26 24/25/25 32/29/29
f 43/39/39 35/32/32 42/35/35
f 41/41/41 33/34/34 40/36/36
f 31/31/31 30/30/30 39/38/38
f 36/33/33 35/32/32 44/40/40
f 34/28/28 33/34/34 42/35/35
f 32/29/29 31/31/31 40/36/36
f 44/40/40 43/39/39 51/43/43
f 42/35/35 41/41/41 49/45/45
f 40/36/36 39/38/38 47/47/47
f 50/42/42 43/39/39 49/45/45
f 48/44/44 41/41/41 47/47/47
f 39/38/38 38/37/37 46/46/46
f 49/45/45 48/44/44 56/50/50
f 47/47/47 46/46/46 54/52/52
f 57/54/54 50/42/42 56/50/50
f 55/49/49 48/44/44 54/52/52
f 46/46/46 45/48/48 53/51/51
f 51/43/43 50/42/42 58/55/55
f 57/68/54 56/63/50 6/11/11
f 4/12/12 55/64/49 3/4/4
f 2/13/13 53/66/51 1/7/7
f 58/62/55 57/68/54 7/10/10
f 56/63/50 55/64/49 5/1/1
f 3/4/4 54/65/52 2/13/13
