# Blender v2.76 (sub 0) OBJ File: ''
# www.blender.org
o Cube
v -1.525375 -0.101964 0.938685
v -1.525375 0.101964 0.938685
v 1.906719 0.000000 0.811971
v -1.565990 0.000000 1.056744
v -1.906719 0.000000 0.811971
v -1.484760 0.000000 0.820627
v 1.492394 0.000000 0.820979
v 0.729707 0.000000 0.944218
v 0.005212 0.000000 1.036426
v -0.716861 0.000000 0.944706
v 1.558356 0.000000 1.072963
v 0.795668 0.000000 1.403464
v -0.005212 0.000000 1.505990
v -0.808514 0.000000 1.397398
v 1.525375 0.105986 0.946971
v 0.762687 0.189521 1.173841
v -0.000000 0.189521 1.266544
v -0.762688 0.189521 1.166388
v 1.525375 -0.105986 0.946971
v 0.762688 -0.189521 1.173841
v 0.000000 -0.189521 1.275872
v -0.762687 -0.189521 1.175716
v 1.811383 -0.037722 0.845721
v -1.494914 -0.076473 0.850142
v 1.803138 0.000000 0.800297
v -1.555836 -0.076473 1.027229
v 1.819628 0.000000 0.891145
v -1.811383 -0.032695 0.843649
v -1.821537 0.000000 0.882101
v -1.801229 0.000000 0.805198
v 1.811383 0.037722 0.845721
v -1.494914 0.076473 0.850142
v -1.555836 0.076473 1.027229
v -1.811383 0.032695 0.843649
v 1.500639 -0.079489 0.852477
v 0.737952 -0.142140 1.001624
v 0.000743 -0.142140 1.098456
v -0.731484 -0.142140 1.004627
v 1.550111 -0.079489 1.041465
v 0.787423 -0.142140 1.346058
v -0.000743 -0.142140 1.450955
v -0.793891 -0.142140 1.344472
v 1.500639 0.079489 0.852477
v 0.737952 0.142140 1.001624
v 0.007075 0.142140 1.091787
v -0.725151 0.142140 0.997958
v 1.550110 0.079489 1.041465
v 0.787423 0.142140 1.346058
v -0.007076 0.142140 1.443633
v -0.800224 0.142140 1.337150
v 1.094560 0.000000 0.870219
v 0.374402 0.000000 1.010460
v -0.363372 0.000000 1.016410
v -1.081806 0.000000 0.864912
v 1.193502 0.000000 1.272158
v 0.388286 0.000000 1.477777
v -0.399315 0.000000 1.481424
v -1.206257 0.000000 1.255357
v 1.144031 0.168637 1.071188
v 0.381344 0.189521 1.242952
v -0.381344 0.189521 1.241921
v -1.144032 0.167632 1.058968
v 1.144031 -0.168637 1.071188
v 0.381344 -0.189521 1.245284
v -0.381344 -0.189521 1.255913
v -1.144031 -0.167632 1.061300
v 1.726239 -0.040318 0.823784
v 1.748226 -0.040318 0.920157
v -1.750771 -0.037190 0.911613
v -1.723694 -0.037190 0.824964
v 1.726239 0.040318 0.823784
v 1.748226 0.040318 0.920158
v -1.750771 0.037190 0.911613
v -1.723694 0.037190 0.824964
v 1.106928 -0.126478 0.920461
v 0.375346 -0.142140 1.069708
v -0.372614 -0.142140 1.079539
v -1.098154 -0.125724 0.914551
v 1.181135 -0.126478 1.221915
v 0.387342 -0.142140 1.420277
v -0.390073 -0.142140 1.428788
v -1.189909 -0.125724 1.207466
v 1.106928 0.126478 0.920461
v 0.376929 0.142140 1.068041
v -0.363116 0.142140 1.069535
v -1.096571 0.125724 0.912884
v 1.181134 0.126478 1.221915
v 0.385758 0.142140 1.418447
v -0.399572 0.142140 1.417805
v -1.191492 0.125724 1.205636
vt 0.347242 0.137344
vt 0.457920 0.137344
vt 0.457920 0.226746
vt 0.347242 0.226746
vt 0.238903 0.226746
vt 0.238903 0.137344
vt 0.238903 0.050496
vt 0.347242 0.050496
vt 0.457920 0.050496
vt 0.675908 0.137344
vt 0.675908 0.226746
vt 0.552715 0.226746
vt 0.552715 0.137344
vt 0.552715 0.050496
vt 0.675908 0.050496
vt 0.799102 0.050496
vt 0.799102 0.137344
vt 0.799102 0.226746
vt 0.505831 0.973254
vt 0.505831 0.951925
vt 0.522253 0.951925
vt 0.522253 0.973254
vt 0.522253 0.994582
vt 0.505831 0.994582
vt 0.489408 0.994582
vt 0.489408 0.973254
vt 0.489408 0.951925
vt 0.135243 0.137344
vt 0.135243 0.226746
vt 0.033923 0.226746
vt 0.033923 0.137344
vt 0.033923 0.050496
vt 0.135243 0.050496
vt 0.509189 0.050431
vt 0.487033 0.050424
vt 0.487040 0.028267
vt 0.487048 0.006110
vt 0.509205 0.006117
vt 0.509197 0.028274
vt 0.531362 0.006125
vt 0.531354 0.028282
vt 0.531346 0.050439
vt 0.989767 0.137344
vt 0.989767 0.226746
vt 0.894434 0.226746
vt 0.894434 0.137344
vt 0.894434 0.050496
vt 0.989767 0.050496
vt 0.894434 0.895629
vt 0.989767 0.895629
vt 0.989767 0.982622
vt 0.894434 0.982622
vt 0.799102 0.982622
vt 0.799102 0.895629
vt 0.799102 0.806118
vt 0.894434 0.806118
vt 0.989767 0.806118
vt 0.894434 0.711570
vt 0.989767 0.711570
vt 0.799102 0.711570
vt 0.799102 0.614248
vt 0.894434 0.614248
vt 0.989767 0.614248
vt 0.894434 0.516414
vt 0.989767 0.516414
vt 0.799102 0.516414
vt 0.799102 0.418580
vt 0.894434 0.418580
vt 0.989767 0.418580
vt 0.989767 0.321258
vt 0.799102 0.321258
vt 0.894434 0.321258
vt 0.135243 0.895629
vt 0.238903 0.895629
vt 0.238903 0.982622
vt 0.135243 0.982622
vt 0.033923 0.982622
vt 0.033923 0.895629
vt 0.033923 0.806118
vt 0.135243 0.806118
vt 0.238903 0.806118
vt 0.238903 0.711570
vt 0.033923 0.711570
vt 0.135243 0.711570
vt 0.033923 0.614248
vt 0.135243 0.614248
vt 0.238903 0.614248
vt 0.238903 0.516414
vt 0.033923 0.516414
vt 0.033923 0.418580
vt 0.135243 0.418580
vt 0.238903 0.418580
vt 0.135243 0.321258
vt 0.238903 0.321258
vt 0.033923 0.321258
vt 0.675908 0.982622
vt 0.552715 0.982622
vt 0.552715 0.895629
vt 0.675908 0.895629
vt 0.552715 0.806118
vt 0.675908 0.806118
vt 0.552715 0.711570
vt 0.675908 0.711570
vt 0.552715 0.614248
vt 0.675908 0.614248
vt 0.552715 0.516414
vt 0.552715 0.418580
vt 0.675908 0.418580
vt 0.675908 0.516414
vt 0.675908 0.321258
vt 0.552715 0.321258
vt 0.457920 0.895629
vt 0.457920 0.982622
vt 0.347242 0.982622
vt 0.347242 0.895629
vt 0.347242 0.806118
vt 0.457920 0.806118
vt 0.457920 0.711570
vt 0.347242 0.711570
vt 0.347242 0.614248
vt 0.457920 0.614248
vt 0.457920 0.516414
vt 0.347242 0.516414
vt 0.347242 0.418580
vt 0.457920 0.418580
vt 0.347242 0.321258
vt 0.457920 0.321258
vt 0.135243 0.516414
vn -0.069800 -0.952000 -0.298100
vn -0.227600 -0.952600 0.201700
vn -0.291000 -0.941300 0.170900
vn -0.121500 -0.930100 -0.346700
vn -0.070600 0.952500 -0.296200
vn -0.121500 0.930100 -0.346700
vn -0.292700 0.935200 0.199200
vn -0.226400 0.953500 0.199200
vn 0.156300 -0.848100 -0.506300
vn 0.087800 0.621100 -0.778800
vn 0.570900 0.679600 0.460700
vn 0.570900 -0.679600 0.460700
vn -0.449900 -0.372900 0.811500
vn -0.448300 0.373800 0.812000
vn -0.528200 0.365900 0.766300
vn -0.520500 -0.386000 0.761600
vn -0.555200 -0.700200 0.448800
vn -0.555200 0.700200 0.448800
vn -0.144200 0.872600 -0.466700
vn -0.053400 -0.553100 -0.831400
vn 0.100700 0.365000 -0.925600
vn 0.102700 -0.376800 -0.920600
vn 0.039800 -0.364400 -0.930400
vn 0.044700 0.394500 -0.917800
vn -0.053100 0.372600 -0.926500
vn -0.060500 -0.413800 -0.908300
vn -0.113800 -0.376400 -0.919400
vn -0.113800 0.376400 -0.919400
vn -0.183700 0.377300 -0.907700
vn -0.184000 -0.378400 -0.907200
vn -0.170700 -0.380100 -0.909100
vn -0.167900 0.372700 -0.912600
vn -0.059700 0.363000 -0.929900
vn -0.064800 -0.384300 -0.920900
vn 0.046400 -0.400800 -0.915000
vn 0.050800 0.349600 -0.935500
vn 0.182100 0.344000 -0.921200
vn 0.186500 -0.408900 -0.893300
vn 0.202000 -0.398000 -0.894900
vn 0.198500 0.369700 -0.907700
vn 0.538000 -0.358200 0.763000
vn 0.526500 0.388000 0.756500
vn 0.445800 0.369300 0.815400
vn 0.445600 -0.367800 0.816200
vn 0.292100 -0.377600 0.878700
vn 0.292100 0.377600 0.878700
vn 0.164200 0.377600 0.911300
vn 0.166700 -0.370700 0.913700
vn 0.073100 -0.374400 0.924400
vn 0.059000 0.385400 0.920900
vn -0.060000 0.407700 0.911100
vn -0.053300 -0.349800 0.935300
vn -0.190700 -0.359700 0.913400
vn -0.184200 0.401300 0.897200
vn -0.308900 0.380900 0.871500
vn -0.317100 -0.373300 0.871800
vn 0.117600 0.930800 -0.346200
vn 0.064900 0.956300 -0.285100
vn 0.224300 0.951400 0.210900
vn 0.298200 0.936500 0.184500
vn -0.017400 0.964000 -0.265300
vn -0.047600 0.964800 -0.258600
vn 0.046700 0.964700 0.259300
vn 0.116400 0.961800 0.247900
vn -0.016800 0.965200 -0.261000
vn 0.015800 0.964500 -0.263400
vn -0.016700 0.965900 0.258500
vn 0.016600 0.965700 0.259000
vn 0.051400 0.964300 -0.259600
vn 0.019300 0.962700 -0.269900
vn -0.121800 0.964100 0.236000
vn -0.051300 0.965600 0.254800
vn 0.117600 -0.930800 -0.346200
vn 0.300100 -0.927700 0.222300
vn 0.224300 -0.951400 0.210900
vn 0.064800 -0.956800 -0.283600
vn -0.017400 -0.964000 -0.265300
vn 0.117500 -0.963500 0.240600
vn 0.048100 -0.964500 0.259500
vn -0.048500 -0.964700 -0.258700
vn -0.019900 -0.965400 -0.259800
vn 0.020900 -0.965200 0.260600
vn -0.014900 -0.965200 0.261100
vn 0.013100 -0.965800 -0.258800
vn 0.053700 -0.964800 -0.257400
vn -0.054600 -0.963700 0.261400
vn -0.125200 -0.961000 0.246700
vn 0.022700 -0.963200 -0.268000
vn -0.069600 -0.953300 -0.294000
vn -0.227400 -0.953800 0.196400
vn -0.292700 -0.935200 0.199200
vn -0.123800 -0.941400 -0.313600
vn -0.070700 0.951800 -0.298300
vn -0.123800 0.941400 -0.313600
vn -0.291000 0.941300 0.170900
vn -0.226300 0.954000 0.196800
vn 0.087800 -0.621100 -0.778800
vn 0.156300 0.848100 -0.506300
vn 0.466700 0.720200 0.513400
vn 0.466700 -0.720200 0.513400
vn -0.449300 -0.368400 0.813900
vn -0.448200 0.373000 0.812400
vn -0.520500 0.386000 0.761600
vn -0.528200 -0.365900 0.766300
vn -0.426400 -0.741600 0.517900
vn -0.426400 0.741600 0.517900
vn -0.053400 0.553100 -0.831400
vn -0.144200 -0.872600 -0.466700
vn 0.101500 0.369900 -0.923500
vn 0.101500 -0.369900 -0.923500
vn 0.044700 -0.394500 -0.917800
vn 0.039800 0.364400 -0.930400
vn -0.060500 0.413800 -0.908300
vn -0.053100 -0.372600 -0.926500
vn -0.113800 -0.376200 -0.919500
vn -0.113800 0.376200 -0.919500
vn -0.184000 0.378400 -0.907200
vn -0.183700 -0.377300 -0.907700
vn -0.169700 -0.377500 -0.910300
vn -0.169700 0.377500 -0.910300
vn -0.065000 0.375700 -0.924500
vn -0.070200 -0.397100 -0.915100
vn 0.049500 -0.408100 -0.911600
vn 0.055900 0.361700 -0.930600
vn 0.185900 0.354200 -0.916500
vn 0.182400 -0.397800 -0.899200
vn 0.197400 -0.382100 -0.902800
vn 0.193900 0.354100 -0.914900
vn 0.526500 -0.388000 0.756500
vn 0.538000 0.358200 0.763000
vn 0.445600 0.367800 0.816200
vn 0.445800 -0.369300 0.815400
vn 0.290800 -0.372700 0.881200
vn 0.290800 0.372700 0.881200
vn 0.165800 0.382400 0.909000
vn 0.168900 -0.377500 0.910500
vn 0.066800 -0.358400 0.931200
vn 0.065500 0.401600 0.913500
vn -0.057000 0.400500 0.914500
vn -0.058000 -0.362000 0.930400
vn -0.188300 -0.351800 0.916900
vn -0.181500 0.392700 0.901600
vn -0.310200 0.386300 0.868700
vn -0.313800 -0.359500 0.878800
vn 0.120800 0.947100 -0.297200
vn 0.064800 0.956800 -0.283600
vn 0.224200 0.952000 0.208300
vn 0.300100 0.927700 0.222300
vn -0.017900 0.964700 -0.262800
vn -0.047100 0.964400 -0.260100
vn 0.046900 0.964800 0.258700
vn 0.117500 0.963500 0.240600
vn -0.016200 0.964900 -0.262300
vn 0.016900 0.965200 -0.261000
vn -0.017000 0.966100 0.257800
vn 0.016100 0.965400 0.260200
vn 0.051400 0.964300 -0.259800
vn 0.019800 0.963600 -0.266600
vn -0.121300 0.963000 0.240600
vn -0.050800 0.965200 0.256600
vn 0.120800 -0.947100 -0.297200
vn 0.298200 -0.936500 0.184500
vn 0.224200 -0.952000 0.208300
vn 0.064900 -0.956300 -0.285100
vn -0.017900 -0.964700 -0.262800
vn 0.116400 -0.961800 0.247900
vn 0.048400 -0.964800 0.258500
vn -0.048500 -0.964800 -0.258500
vn -0.020700 -0.965900 -0.258000
vn 0.020700 -0.965100 0.261200
vn -0.013800 -0.964500 0.263600
vn 0.013500 -0.966100 -0.257900
vn 0.054000 -0.965000 -0.256600
vn -0.054800 -0.963900 0.260500
vn -0.126300 -0.963400 0.236600
vn 0.023500 -0.964600 -0.262800
s off
f 1/1/1 24/2/1 78/3/1
f 66/4/2 82/5/2 26/6/2
f 1/1/3 26/6/3 69/7/3
f 28/8/4 70/9/4 24/2/4
f 2/10/5 62/11/5 86/12/5
f 32/13/6 74/14/6 34/15/6
f 2/10/7 34/15/7 73/16/7
f 33/17/8 90/18/8 62/11/8
f 3/19/9 23/20/9 67/21/9
f 3/19/10 25/22/10 71/23/10
f 31/24/11 72/25/11 27/26/11
f 27/26/12 68/27/12 23/20/12
f 4/28/13 26/6/13 82/5/13
f 4/28/14 58/29/14 90/30/14
f 4/28/15 33/31/15 73/32/15
f 4/28/16 29/33/16 69/7/16
f 28/34/17 69/35/17 29/36/17
f 29/36/18 73/37/18 34/38/18
f 5/39/19 34/38/19 74/40/19
f 5/39/20 30/41/20 70/42/20
f 32/43/21 86/44/21 54/45/21
f 54/45/22 78/18/22 24/17/22
f 6/46/23 24/17/23 70/16/23
f 6/46/24 30/47/24 74/48/24
f 7/49/25 43/50/25 71/51/25
f 7/49/26 25/52/26 67/53/26
f 35/54/27 75/55/27 51/56/27
f 51/56/28 83/57/28 43/50/28
f 8/58/29 44/59/29 83/57/29
f 8/58/30 51/56/30 75/55/30
f 36/60/31 76/61/31 52/62/31
f 52/62/32 84/63/32 44/59/32
f 9/64/33 45/65/33 84/63/33
f 9/64/34 52/62/34 76/61/34
f 9/64/35 37/66/35 77/67/35
f 9/64/36 53/68/36 85/69/36
f 46/70/37 85/69/37 53/68/37
f 53/68/38 77/67/38 38/71/38
f 10/72/39 38/71/39 78/18/39
f 10/72/40 54/45/40 86/44/40
f 11/73/41 39/74/41 68/75/41
f 11/73/42 27/76/42 72/77/42
f 11/73/43 47/78/43 87/79/43
f 11/73/44 55/80/44 79/81/44
f 40/82/45 79/81/45 55/80/45
f 55/80/46 87/79/46 48/83/46
f 12/84/47 48/83/47 88/85/47
f 12/84/48 56/86/48 80/87/48
f 41/88/49 80/87/49 56/86/49
f 56/86/50 88/85/50 49/89/50
f 49/89/51 89/90/51 57/91/51
f 57/91/52 81/92/52 41/88/52
f 14/93/53 42/94/53 81/92/53
f 14/93/54 57/91/54 89/90/54
f 50/95/55 90/30/55 58/29/55
f 58/29/56 82/5/56 42/94/56
f 31/96/57 71/97/57 43/98/57
f 15/99/58 43/98/58 83/100/58
f 59/101/59 87/55/59 47/54/59
f 15/99/60 47/54/60 72/53/60
f 59/101/61 83/100/61 44/102/61
f 16/103/62 44/102/62 84/104/62
f 60/105/63 88/61/63 48/60/63
f 16/103/64 48/60/64 87/55/64
f 60/105/65 84/104/65 45/106/65
f 45/106/66 85/107/66 61/108/66
f 17/109/67 61/108/67 89/67/67
f 17/109/68 49/66/68 88/61/68
f 18/110/69 61/108/69 85/107/69
f 46/111/70 86/12/70 62/11/70
f 18/110/71 62/11/71 90/18/71
f 50/71/72 89/67/72 61/108/72
f 35/112/73 67/113/73 23/114/73
f 19/115/74 23/114/74 68/75/74
f 39/74/75 79/81/75 63/116/75
f 19/115/76 63/116/76 75/117/76
f 36/118/77 75/117/77 63/116/77
f 20/119/78 63/116/78 79/81/78
f 40/82/79 80/87/79 64/120/79
f 20/119/80 64/120/80 76/121/80
f 37/122/81 76/121/81 64/120/81
f 21/123/82 64/120/82 80/87/82
f 21/123/83 41/88/83 81/92/83
f 65/124/84 77/125/84 37/122/84
f 22/126/85 38/127/85 77/125/85
f 65/124/86 81/92/86 42/94/86
f 22/126/87 42/94/87 82/5/87
f 66/4/88 78/3/88 38/127/88
f 66/4/89 1/1/89 78/3/89
f 1/1/90 66/4/90 26/6/90
f 28/8/91 1/1/91 69/7/91
f 1/1/92 28/8/92 24/2/92
f 32/13/93 2/10/93 86/12/93
f 2/10/94 32/13/94 34/15/94
f 33/17/95 2/10/95 73/16/95
f 2/10/96 33/17/96 62/11/96
f 25/22/97 3/19/97 67/21/97
f 31/24/98 3/19/98 71/23/98
f 3/19/99 31/24/99 27/26/99
f 3/19/100 27/26/100 23/20/100
f 58/29/101 4/28/101 82/5/101
f 33/31/102 4/28/102 90/30/102
f 29/33/103 4/28/103 73/32/103
f 26/6/104 4/28/104 69/7/104
f 5/39/105 28/34/105 29/36/105
f 5/39/106 29/36/106 34/38/106
f 30/41/107 5/39/107 74/40/107
f 28/34/108 5/39/108 70/42/108
f 6/46/109 32/43/109 54/45/109
f 6/46/110 54/45/110 24/17/110
f 30/47/111 6/46/111 70/16/111
f 32/43/112 6/46/112 74/48/112
f 25/52/113 7/49/113 71/51/113
f 35/54/114 7/49/114 67/53/114
f 7/49/115 35/54/115 51/56/115
f 7/49/116 51/56/116 43/50/116
f 51/56/117 8/58/117 83/57/117
f 36/60/118 8/58/118 75/55/118
f 8/58/119 36/60/119 52/62/119
f 8/58/120 52/62/120 44/59/120
f 52/62/121 9/64/121 84/63/121
f 37/66/122 9/64/122 76/61/122
f 53/68/123 9/64/123 77/67/123
f 45/65/124 9/64/124 85/69/124
f 10/72/125 46/70/125 53/68/125
f 10/72/126 53/68/126 38/71/126
f 54/45/127 10/72/127 78/18/127
f 46/70/128 10/72/128 86/44/128
f 27/76/129 11/73/129 68/75/129
f 47/78/130 11/73/130 72/77/130
f 55/80/131 11/73/131 87/79/131
f 39/74/132 11/73/132 79/81/132
f 12/84/133 40/82/133 55/80/133
f 12/84/134 55/80/134 48/83/134
f 56/86/135 12/84/135 88/85/135
f 40/82/136 12/84/136 80/87/136
f 13/128/137 41/88/137 56/86/137
f 13/128/138 56/86/138 49/89/138
f 13/128/139 49/89/139 57/91/139
f 13/128/140 57/91/140 41/88/140
f 57/91/141 14/93/141 81/92/141
f 50/95/142 14/93/142 89/90/142
f 14/93/143 50/95/143 58/29/143
f 14/93/144 58/29/144 42/94/144
f 15/99/145 31/96/145 43/98/145
f 59/101/146 15/99/146 83/100/146
f 15/99/147 59/101/147 47/54/147
f 31/96/148 15/99/148 72/53/148
f 16/103/149 59/101/149 44/102/149
f 60/105/150 16/103/150 84/104/150
f 16/103/151 60/105/151 48/60/151
f 59/101/152 16/103/152 87/55/152
f 17/109/153 60/105/153 45/106/153
f 17/109/154 45/106/154 61/108/154
f 49/66/155 17/109/155 89/67/155
f 60/105/156 17/109/156 88/61/156
f 46/111/157 18/110/157 85/107/157
f 18/110/158 46/111/158 62/11/158
f 50/71/159 18/110/159 90/18/159
f 18/110/160 50/71/160 61/108/160
f 19/115/161 35/112/161 23/114/161
f 39/74/162 19/115/162 68/75/162
f 19/115/163 39/74/163 63/116/163
f 35/112/164 19/115/164 75/117/164
f 20/119/165 36/118/165 63/116/165
f 40/82/166 20/119/166 79/81/166
f 20/119/167 40/82/167 64/120/167
f 36/118/168 20/119/168 76/121/168
f 21/123/169 37/122/169 64/120/169
f 41/88/170 21/123/170 80/87/170
f 65/124/171 21/123/171 81/92/171
f 21/123/172 65/124/172 37/122/172
f 65/124/173 22/126/173 77/125/173
f 22/126/174 65/124/174 42/94/174
f 66/4/175 22/126/175 82/5/175
f 22/126/176 66/4/176 38/127/176
