# Blender v2.76 (sub 0) OBJ File: ''
# www.blender.org
o Cube_Cube.001
v -0.168639 -0.098901 -0.056213
v -0.148678 -0.098901 -0.148678
v -0.121681 -0.197801 -0.121681
v 0.056213 -0.098901 -0.168639
v 0.148678 -0.098901 -0.148678
v 0.121681 -0.197801 -0.121681
v 0.168639 -0.098901 0.056213
v 0.148678 -0.098901 0.148678
v 0.121681 -0.197801 0.121681
v -0.056213 -0.098901 0.168639
v -0.148678 -0.098901 0.148678
v -0.121681 -0.197801 0.121681
v 0.052547 -0.251026 -0.052547
v 0.049538 -0.197801 -0.148614
v 0.139654 0.000000 -0.139654
v 0.120996 0.098901 -0.120996
v 0.052547 0.000000 -0.157642
v 0.081229 0.197801 -0.081229
v 0.045224 0.098901 -0.135671
v -0.139654 0.000000 -0.139654
v -0.120996 0.098901 -0.120996
v -0.157642 0.000000 -0.052547
v -0.081229 0.197801 -0.081229
v -0.135671 0.098901 -0.045224
v -0.015717 0.804121 0.015717
v 0.015717 0.804121 0.015717
v 0.000000 1.124463 0.000000
v 0.015717 0.804121 -0.015717
v -0.015717 0.804121 -0.015717
v 0.081229 0.197801 0.081229
v 0.120996 0.098901 0.120996
v 0.135671 0.098901 0.045224
v 0.139654 -0.000000 0.139654
v 0.157642 -0.000000 0.052547
v -0.081229 0.197801 0.081229
v -0.120996 0.098901 0.120996
v -0.045224 0.098901 0.135671
v -0.139654 -0.000000 0.139654
v -0.052547 -0.000000 0.157642
v -0.056213 -0.098901 -0.168639
v -0.049538 -0.197801 -0.148614
v 0.056213 -0.098901 0.168639
v 0.049538 -0.197801 0.148614
v -0.049538 -0.197801 0.148614
v -0.052547 -0.251026 -0.052547
v -0.052547 0.000000 -0.157642
v -0.045224 0.098901 -0.135671
v -0.031764 0.197801 -0.095291
v 0.031764 0.197801 -0.095291
v 0.031764 0.197801 0.095291
v 0.045224 0.098901 0.135671
v -0.031764 0.197801 0.095291
v 0.052547 -0.000000 0.157642
v -0.168639 -0.098901 0.056213
v -0.148614 -0.197801 0.049538
v -0.148614 -0.197801 -0.049538
v 0.168639 -0.098901 -0.056213
v 0.148614 -0.197801 -0.049538
v 0.148614 -0.197801 0.049538
v 0.052547 -0.251026 0.052547
v -0.157642 -0.000000 0.052547
v -0.135671 0.098901 0.045224
v -0.095291 0.197801 0.031764
v -0.095291 0.197801 -0.031764
v 0.095291 0.197801 -0.031764
v 0.135671 0.098901 -0.045224
v 0.095291 0.197801 0.031764
v 0.157642 0.000000 -0.052547
v -0.052547 -0.251026 0.052547
v -0.026176 0.625378 0.026149
v -0.026176 0.625378 -0.026148
v -0.054665 0.315845 0.017776
v 0.026063 0.626696 -0.026090
v 0.026063 0.626696 0.026091
v 0.023949 0.315845 -0.054665
v 0.046484 0.315845 -0.046484
v 0.054665 0.315845 0.019992
v 0.046484 0.315845 0.046484
v -0.046484 0.315845 0.046484
v 0.054665 0.315845 -0.017441
v -0.015316 0.315845 -0.054665
v -0.046484 0.315845 -0.046484
v -0.054665 0.315845 -0.021841
v -0.018903 0.315845 0.054665
v 0.019381 0.315845 0.054665
vt 0.018310 0.680063
vt 0.069999 0.568908
vt 0.136932 0.637399
vt 0.323470 0.522445
vt 0.434319 0.574025
vt 0.366051 0.640699
vt 0.479904 0.827051
vt 0.428215 0.938206
vt 0.361281 0.869715
vt 0.174743 0.984670
vt 0.063894 0.933089
vt 0.132162 0.866415
vt 0.296549 0.707915
vt 0.298817 0.614053
vt 0.863113 0.368106
vt 0.918775 0.427862
vt 0.816598 0.479344
vt 0.793117 0.292517
vt 0.793638 0.397108
vt 0.840534 0.839679
vt 0.931544 0.931089
vt 0.820460 0.973562
vt 0.634324 0.362326
vt 0.573581 0.419842
vt 0.518727 0.312987
vt 0.709907 0.290381
vt 0.603864 0.289699
vt 0.661219 0.836591
vt 0.570082 0.927017
vt 0.527959 0.816577
vt 0.017541 0.324152
vt 0.178187 0.324152
vt 0.097864 0.404475
vt 0.178187 0.484798
vt 0.017541 0.484798
vt 0.842288 0.659508
vt 0.933172 0.567342
vt 0.977289 0.678753
vt 0.798495 0.206950
vt 0.874770 0.137329
vt 0.902796 0.208755
vt 0.936203 0.081892
vt 0.986467 0.187678
vt 0.663328 0.657938
vt 0.572622 0.568183
vt 0.681646 0.524975
vt 0.714160 0.203614
vt 0.643544 0.127376
vt 0.714650 0.098121
vt 0.586920 0.065665
vt 0.692674 0.013956
vt 0.181045 0.523033
vt 0.205420 0.611272
vt 0.317169 0.984081
vt 0.292794 0.895843
vt 0.199397 0.893061
vt 0.204399 0.706960
vt 0.704018 0.395272
vt 0.677806 0.481844
vt 0.734931 0.296781
vt 0.768251 0.297367
vt 0.715341 0.859094
vt 0.680613 0.972747
vt 0.785645 0.861904
vt 0.787292 0.637261
vt 0.820857 0.523028
vt 0.717375 0.635576
vt 0.773059 0.200191
vt 0.805949 0.102683
vt 0.739493 0.197758
vt 0.834428 0.016119
vt 0.018310 0.822371
vt 0.106349 0.798403
vt 0.110028 0.705215
vt 0.479904 0.684743
vt 0.391864 0.708712
vt 0.388185 0.801899
vt 0.293814 0.800154
vt 0.608372 0.197101
vt 0.520530 0.168600
vt 0.706355 0.229346
vt 0.704328 0.262682
vt 0.641534 0.711757
vt 0.528422 0.678003
vt 0.638940 0.781687
vt 0.862820 0.785445
vt 0.977289 0.819752
vt 0.865294 0.714763
vt 0.800627 0.266516
vt 0.897524 0.299459
vt 0.802949 0.233160
vt 0.982888 0.327648
vt 0.201664 0.799199
vt 0.375582 0.268889
vt 0.375582 0.329210
vt 0.202632 0.278546
vt 0.475062 0.317178
vt 0.475062 0.280922
vt 0.376316 0.439229
vt 0.375585 0.378975
vt 0.475062 0.391045
vt 0.376316 0.158923
vt 0.475061 0.170851
vt 0.475062 0.207106
vt 0.376318 0.108887
vt 0.376318 0.048700
vt 0.475062 0.060666
vt 0.766573 0.782132
vt 0.780530 0.777137
vt 0.785020 0.736842
vt 0.779987 0.720643
vt 0.723675 0.719287
vt 0.786058 0.759442
vt 0.743111 0.782211
vt 0.724059 0.776737
vt 0.719521 0.761233
vt 0.718554 0.737068
vt 0.740837 0.714396
vt 0.763752 0.715289
vt 0.202632 0.391501
vt 0.202632 0.436791
vt 0.203277 0.464422
vt 0.375585 0.219176
vt 0.202632 0.166631
vt 0.203263 0.133994
vt 0.203262 0.243954
vt 0.202632 0.210789
vt 0.203259 0.244132
vt 0.203270 0.354171
vt 0.202632 0.324240
vt 0.475061 0.427301
vt 0.475062 0.096922
vt 0.202632 0.058677
vt 0.203259 0.023891
vt 0.203265 0.133815
vt 0.202632 0.101853
vt 0.203255 0.354349
vn -0.990600 -0.062900 -0.121600
vn -0.702800 -0.110800 -0.702800
vn -0.572200 -0.587500 -0.572200
vn 0.121600 -0.062900 -0.990600
vn 0.702800 -0.110800 -0.702800
vn 0.572200 -0.587500 -0.572200
vn 0.990600 -0.062900 0.121600
vn 0.702800 -0.110800 0.702800
vn 0.572200 -0.587500 0.572200
vn -0.121600 -0.062900 0.990600
vn -0.702800 -0.110800 0.702800
vn -0.572200 -0.587500 0.572200
vn 0.211600 -0.954200 -0.211600
vn 0.139500 -0.570000 -0.809700
vn 0.694000 0.191700 -0.694000
vn 0.657700 0.367300 -0.657700
vn 0.099700 0.166500 -0.981000
vn 0.639000 0.428100 -0.639000
vn 0.096900 0.311400 -0.945300
vn -0.694000 0.191700 -0.694000
vn -0.657700 0.367300 -0.657700
vn -0.981000 0.166500 -0.099700
vn -0.639000 0.428100 -0.639000
vn -0.945300 0.311400 -0.096900
vn -0.705100 0.076100 0.705100
vn 0.705100 0.076000 0.705000
vn 0.000000 1.000000 0.000000
vn 0.705100 0.076000 -0.705000
vn -0.705100 0.076100 -0.705100
vn 0.639000 0.428100 0.639000
vn 0.657700 0.367300 0.657700
vn 0.945300 0.311400 0.096900
vn 0.694000 0.191700 0.694000
vn 0.981000 0.166500 0.099700
vn -0.639000 0.428100 0.639000
vn -0.657700 0.367300 0.657700
vn -0.096900 0.311400 0.945300
vn -0.694000 0.191700 0.694000
vn -0.099700 0.166500 0.981000
vn -0.121600 -0.062900 -0.990600
vn -0.139500 -0.570000 -0.809700
vn 0.121600 -0.062900 0.990600
vn 0.139500 -0.570000 0.809700
vn -0.139500 -0.570000 0.809700
vn -0.211600 -0.954200 -0.211600
vn -0.099700 0.166500 -0.981000
vn -0.096900 0.311400 -0.945300
vn -0.127900 0.364200 -0.922500
vn 0.128000 0.363600 -0.922700
vn 0.128000 0.363900 0.922600
vn 0.096900 0.311400 0.945300
vn -0.128000 0.364000 0.922600
vn 0.099700 0.166500 0.981000
vn -0.990600 -0.062900 0.121600
vn -0.809700 -0.570000 0.139500
vn -0.809700 -0.570000 -0.139500
vn 0.990600 -0.062900 -0.121600
vn 0.809700 -0.570000 -0.139500
vn 0.809700 -0.570000 0.139500
vn 0.211600 -0.954200 0.211600
vn -0.981000 0.166500 0.099700
vn -0.945300 0.311400 0.096900
vn -0.922600 0.364000 0.128000
vn -0.922700 0.363700 -0.128000
vn 0.922500 0.364100 -0.128000
vn 0.945300 0.311400 -0.096900
vn 0.922600 0.363900 0.128000
vn 0.981000 0.166500 -0.099700
vn -0.211600 -0.954200 0.211600
vn -0.703400 0.105700 0.702900
vn -0.703400 0.105700 -0.702800
vn -0.967700 0.215800 0.130500
vn 0.702900 0.105400 -0.703400
vn 0.702900 0.105300 0.703500
vn 0.167800 0.214400 -0.962200
vn 0.707900 0.245800 -0.662200
vn 0.966100 0.215400 0.142100
vn 0.682900 0.248900 0.686800
vn -0.687700 0.251600 0.681000
vn 0.967900 0.215800 -0.129000
vn -0.119600 0.216000 -0.969000
vn -0.664500 0.250400 -0.704100
vn -0.964500 0.215000 -0.153100
vn -0.136200 0.215600 0.966900
vn 0.138700 0.215500 0.966600
s 1
f 1/1/1 2/2/2 3/3/3
f 4/4/4 5/5/5 6/6/6
f 7/7/7 8/8/8 9/9/9
f 10/10/10 11/11/11 12/12/12
f 13/13/13 14/14/14 6/6/6
f 15/15/15 5/16/5 4/17/4
f 16/18/16 15/15/15 17/19/17
f 18/20/18 16/21/16 19/22/19
f 20/23/20 2/24/2 1/25/1
f 21/26/21 20/23/20 22/27/22
f 23/28/23 21/29/21 24/30/24
f 25/31/25 26/32/26 27/33/27
f 26/32/26 28/34/28 27/33/27
f 28/34/28 29/35/29 27/33/27
f 29/35/29 25/31/25 27/33/27
f 30/36/30 31/37/31 32/38/32
f 31/39/31 33/40/33 34/41/34
f 33/40/33 8/42/8 7/43/7
f 35/44/35 36/45/36 37/46/37
f 36/47/36 38/48/38 39/49/39
f 38/48/38 11/50/11 10/51/10
f 40/52/40 41/53/41 3/3/3
f 40/52/40 4/4/4 14/14/14
f 42/54/42 43/55/43 9/9/9
f 42/54/42 10/10/10 44/56/44
f 3/3/3 41/53/41 45/57/45
f 45/57/45 41/53/41 14/14/14
f 20/23/20 46/58/46 40/59/40
f 46/58/46 17/19/17 4/17/4
f 21/26/21 47/60/47 46/58/46
f 47/60/47 19/61/19 17/19/17
f 23/28/23 48/62/48 47/63/47
f 48/62/48 49/64/49 19/22/19
f 30/36/30 50/65/50 51/66/51
f 50/65/50 52/67/52 37/46/37
f 31/39/31 51/68/51 53/69/53
f 51/68/51 37/70/37 39/49/39
f 33/40/33 53/69/53 42/71/42
f 53/69/53 39/49/39 10/51/10
f 54/72/54 55/73/55 12/12/12
f 54/72/54 1/1/1 56/74/56
f 57/75/57 58/76/58 6/6/6
f 57/75/57 7/7/7 59/77/59
f 60/78/60 59/77/59 9/9/9
f 60/78/60 13/13/13 58/76/58
f 38/48/38 61/79/61 54/80/54
f 61/79/61 22/27/22 1/25/1
f 36/47/36 62/81/62 61/79/61
f 62/81/62 24/82/24 22/27/22
f 35/44/35 63/83/63 62/84/62
f 63/83/63 64/85/64 24/30/24
f 18/20/18 65/86/65 66/87/66
f 65/86/65 67/88/67 32/38/32
f 16/18/16 66/89/66 68/90/68
f 66/89/66 32/91/32 34/41/34
f 15/15/15 68/90/68 57/92/57
f 68/90/68 34/41/34 7/43/7
f 12/12/12 55/73/55 69/93/69
f 55/73/55 56/74/56 45/57/45
f 44/56/44 69/93/69 60/78/60
f 69/93/69 45/57/45 13/13/13
f 70/94/70 71/95/71 72/96/72
f 29/97/29 71/95/71 25/98/25
f 71/95/71 70/94/70 25/98/25
f 73/99/73 71/100/71 29/101/29
f 74/102/74 26/103/26 25/104/25
f 74/105/74 73/106/73 28/107/28
f 49/64/49 75/108/75 76/109/76
f 67/88/67 77/110/77 78/111/78
f 50/65/50 30/36/30 78/111/78
f 63/83/63 35/44/35 79/112/79
f 67/88/67 65/86/65 80/113/80
f 65/86/65 18/20/18 76/109/76
f 49/64/49 48/62/48 81/114/81
f 48/62/48 23/28/23 82/115/82
f 64/85/64 83/116/83 82/115/82
f 64/85/64 63/83/63 72/117/72
f 52/67/52 84/118/84 79/112/79
f 50/65/50 85/119/85 84/118/84
f 81/120/81 73/99/73 75/121/75
f 73/99/73 76/122/76 75/121/75
f 56/74/56 1/1/1 3/3/3
f 14/14/14 4/4/4 6/6/6
f 59/77/59 7/7/7 9/9/9
f 44/56/44 10/10/10 12/12/12
f 58/76/58 13/13/13 6/6/6
f 17/19/17 15/15/15 4/17/4
f 19/61/19 16/18/16 17/19/17
f 49/64/49 18/20/18 19/22/19
f 22/27/22 20/23/20 1/25/1
f 24/82/24 21/26/21 22/27/22
f 64/85/64 23/28/23 24/30/24
f 67/88/67 30/36/30 32/38/32
f 32/91/32 31/39/31 34/41/34
f 34/41/34 33/40/33 7/43/7
f 52/67/52 35/44/35 37/46/37
f 37/70/37 36/47/36 39/49/39
f 39/49/39 38/48/38 10/51/10
f 2/2/2 40/52/40 3/3/3
f 41/53/41 40/52/40 14/14/14
f 8/8/8 42/54/42 9/9/9
f 43/55/43 42/54/42 44/56/44
f 56/74/56 3/3/3 45/57/45
f 13/13/13 45/57/45 14/14/14
f 2/24/2 20/23/20 40/59/40
f 40/59/40 46/58/46 4/17/4
f 20/23/20 21/26/21 46/58/46
f 46/58/46 47/60/47 17/19/17
f 21/29/21 23/28/23 47/63/47
f 47/63/47 48/62/48 19/22/19
f 31/37/31 30/36/30 51/66/51
f 51/66/51 50/65/50 37/46/37
f 33/40/33 31/39/31 53/69/53
f 53/69/53 51/68/51 39/49/39
f 8/42/8 33/40/33 42/71/42
f 42/71/42 53/69/53 10/51/10
f 11/11/11 54/72/54 12/12/12
f 55/73/55 54/72/54 56/74/56
f 5/5/5 57/75/57 6/6/6
f 58/76/58 57/75/57 59/77/59
f 43/55/43 60/78/60 9/9/9
f 59/77/59 60/78/60 58/76/58
f 11/50/11 38/48/38 54/80/54
f 54/80/54 61/79/61 1/25/1
f 38/48/38 36/47/36 61/79/61
f 61/79/61 62/81/62 22/27/22
f 36/45/36 35/44/35 62/84/62
f 62/84/62 63/83/63 24/30/24
f 16/21/16 18/20/18 66/87/66
f 66/87/66 65/86/65 32/38/32
f 15/15/15 16/18/16 68/90/68
f 68/90/68 66/89/66 34/41/34
f 5/16/5 15/15/15 57/92/57
f 57/92/57 68/90/68 7/43/7
f 44/56/44 12/12/12 69/93/69
f 69/93/69 55/73/55 45/57/45
f 43/55/43 44/56/44 60/78/60
f 60/78/60 69/93/69 13/13/13
f 74/102/74 70/123/70 85/124/85
f 85/124/85 78/125/78 74/102/74
f 79/126/79 84/127/84 70/123/70
f 70/123/70 84/127/84 85/124/85
f 72/96/72 79/128/79 70/94/70
f 82/129/82 83/130/83 71/95/71
f 71/95/71 83/130/83 72/96/72
f 28/131/28 73/99/73 29/101/29
f 70/123/70 74/102/74 25/104/25
f 26/132/26 74/105/74 28/107/28
f 18/20/18 49/64/49 76/109/76
f 30/36/30 67/88/67 78/111/78
f 85/119/85 50/65/50 78/111/78
f 72/117/72 63/83/63 79/112/79
f 77/110/77 67/88/67 80/113/80
f 80/113/80 65/86/65 76/109/76
f 75/108/75 49/64/49 81/114/81
f 81/114/81 48/62/48 82/115/82
f 23/28/23 64/85/64 82/115/82
f 83/116/83 64/85/64 72/117/72
f 35/44/35 52/67/52 79/112/79
f 52/67/52 50/65/50 84/118/84
f 73/106/73 74/105/74 80/133/80
f 80/133/80 76/134/76 73/106/73
f 78/135/78 77/136/77 74/105/74
f 74/105/74 77/136/77 80/133/80
f 81/120/81 82/137/82 71/100/71
f 81/120/81 71/100/71 73/99/73
