# Blender v2.75 (sub 0) OBJ File: 'bomb.blend'
# www.blender.org
o Cylinder
v -0.055426 0.511803 0.079210
v 0.007302 0.308204 0.024285
v -0.065089 0.515922 0.052907
v -0.002360 0.312323 -0.002018
v -0.047949 0.526565 0.033029
v 0.014779 0.322966 -0.021896
v -0.021147 0.533089 0.039454
v 0.041581 0.329490 -0.015471
v -0.011485 0.528970 0.065757
v 0.051243 0.325371 0.010832
v -0.028625 0.518327 0.085635
v 0.034104 0.314728 0.030710
v 0.000000 -0.395238 0.000000
v 0.285997 -0.176758 0.207786
v -0.109239 -0.176758 0.336208
v -0.353511 -0.176757 -0.000000
v -0.109239 -0.176758 -0.336208
v 0.285997 -0.176758 -0.207786
v 0.109239 0.176758 0.336208
v -0.285997 0.176758 0.207786
v -0.285997 0.176758 -0.207786
v 0.109239 0.176758 -0.336208
v 0.353511 0.176756 0.000000
v 0.000000 0.395237 0.000000
v -0.064209 -0.336211 0.197617
v 0.168103 -0.336210 0.122133
v 0.103896 -0.207791 0.319752
v 0.336208 -0.207790 0.000000
v 0.168103 -0.336210 -0.122133
v -0.207788 -0.336209 -0.000000
v -0.271998 -0.207791 0.197617
v -0.064208 -0.336211 -0.197617
v -0.271998 -0.207791 -0.197618
v 0.103896 -0.207791 -0.319752
v 0.375894 0.000000 0.122133
v 0.375894 0.000000 -0.122133
v -0.000000 -0.000000 0.395237
v 0.232315 0.000000 0.319754
v -0.375894 -0.000000 0.122133
v -0.232315 -0.000000 0.319754
v -0.232315 -0.000000 -0.319754
v -0.375894 -0.000000 -0.122133
v 0.232315 0.000000 -0.319754
v 0.000000 0.000000 -0.395237
v 0.271998 0.207791 0.197618
v -0.103896 0.207791 0.319752
v -0.336208 0.207790 0.000000
v -0.103896 0.207791 -0.319752
v 0.271998 0.207791 -0.197618
v 0.064209 0.336210 0.197617
v 0.207788 0.336209 0.000000
v -0.168103 0.336210 0.122133
v -0.168103 0.336210 -0.122133
v 0.064209 0.336210 -0.197617
vt 0.179780 0.872143
vt 0.179780 0.969401
vt 0.082522 0.969401
vt 0.082522 0.872143
vt 0.131151 0.969401
vt 0.173265 0.896457
vt 0.131151 0.872143
vt 0.045541 0.057214
vt 0.048734 0.057442
vt 0.046908 0.059929
vt 0.051278 0.058505
vt 0.051943 0.055181
vt 0.043264 0.060138
vt 0.041286 0.054973
vt 0.047201 0.053222
vt 0.054202 0.058604
vt 0.562743 -0.021162
vt 0.895756 0.094134
vt 0.589803 0.306075
vt 0.042742 0.064144
vt 0.045933 0.062754
vt 0.045919 0.066182
vt 0.896239 0.235715
vt 0.967570 0.333685
vt 0.926351 0.619663
vt 0.309530 0.022843
vt 0.592101 -0.000647
vt 0.135278 0.196434
vt 0.052025 0.060875
vt 0.253284 0.147321
vt 0.041600 0.069139
vt 0.580307 0.405990
vt 0.052969 0.047666
vt 0.063622 0.047497
vt 0.057520 0.054687
vt 0.604138 0.611621
vt 0.803490 0.875423
vt 0.404791 0.875423
vt 0.006708 0.399022
vt 0.314121 0.514404
vt 0.026705 0.750860
vt 0.043579 0.077063
vt 0.047551 0.070455
vt 0.053808 0.076340
vt 0.291835 0.574992
vt 0.553781 0.782744
vt 0.119766 0.841056
vt 0.057810 0.059857
vt 0.065696 0.059280
vt 0.058504 0.064390
vt 0.064105 0.070947
vt 0.056348 0.068787
vt -0.216330 0.694795
vt 0.540467 0.977848
vt 0.793520 0.892250
vt 0.051923 0.068341
vt 0.049018 0.066838
vt 0.054216 0.065395
vt 0.054828 0.062051
vt 0.912351 0.491872
vt 0.033587 0.074073
vt 0.034992 0.062183
vt 0.048446 0.064182
vt 0.048239 0.061892
vt 0.049572 0.060169
vt 0.042430 0.045519
vt 0.033587 0.051544
vt 0.089037 0.896457
vt 0.089037 0.945086
vt 0.173265 0.945086
vn 0.895700 0.350000 -0.274200
vn 0.743300 0.049000 0.667200
vn -0.152400 -0.300900 0.941400
vn -0.895700 -0.350000 0.274200
vn -0.285100 0.925400 0.249600
vn 0.152400 0.300900 -0.941400
vn -0.743300 -0.049000 -0.667200
vn 0.285100 -0.925400 -0.249700
vn 0.102400 -0.943500 0.315100
vn 0.700200 -0.661700 0.268000
vn -0.268000 -0.943500 0.194700
vn -0.268000 -0.943500 -0.194700
vn 0.102400 -0.943500 -0.315100
vn 0.905000 -0.330400 0.268000
vn 0.024700 -0.330400 0.943500
vn -0.889700 -0.330400 0.315100
vn -0.574600 -0.330400 -0.748800
vn 0.534600 -0.330400 -0.777900
vn 0.802600 -0.125600 0.583100
vn -0.306600 -0.125600 0.943500
vn -0.992100 -0.125600 -0.000000
vn -0.306600 -0.125600 -0.943500
vn 0.802600 -0.125600 -0.583100
vn 0.408900 0.661700 0.628400
vn -0.471300 0.661700 0.583100
vn -0.700200 0.661700 -0.268000
vn 0.038500 0.661700 -0.748800
vn 0.724000 0.661700 -0.194700
vn 0.268000 0.943500 -0.194700
vn 0.491100 0.794700 -0.356800
vn 0.408900 0.661700 -0.628400
vn -0.102400 0.943500 -0.315100
vn -0.187600 0.794700 -0.577300
vn -0.471300 0.661700 -0.583100
vn -0.331300 0.943500 0.000000
vn -0.607100 0.794700 0.000000
vn -0.700200 0.661700 0.268000
vn -0.102400 0.943500 0.315100
vn -0.187600 0.794700 0.577300
vn 0.038500 0.661700 0.748800
vn 0.268000 0.943500 0.194700
vn 0.491100 0.794700 0.356800
vn 0.724000 0.661700 0.194700
vn 0.889700 0.330400 -0.315100
vn 0.794700 0.187600 -0.577300
vn 0.574600 0.330400 -0.748800
vn -0.024700 0.330400 -0.943500
vn -0.303500 0.187600 -0.934200
vn -0.534600 0.330400 -0.777900
vn -0.905000 0.330400 -0.268000
vn -0.982200 0.187600 -0.000000
vn -0.905000 0.330400 0.268000
vn -0.534600 0.330400 0.777900
vn -0.303500 0.187600 0.934200
vn -0.024700 0.330400 0.943500
vn 0.574600 0.330400 0.748800
vn 0.794700 0.187600 0.577300
vn 0.889700 0.330400 0.315100
vn 0.306600 0.125600 -0.943500
vn 0.303500 -0.187600 -0.934200
vn 0.024700 -0.330400 -0.943500
vn -0.802600 0.125600 -0.583100
vn -0.794700 -0.187600 -0.577300
vn -0.889700 -0.330400 -0.315100
vn -0.802600 0.125600 0.583100
vn -0.794700 -0.187600 0.577300
vn -0.574600 -0.330400 0.748800
vn 0.306600 0.125600 0.943500
vn 0.303500 -0.187600 0.934200
vn 0.534600 -0.330400 0.777900
vn 0.992100 0.125600 0.000000
vn 0.982200 -0.187600 0.000000
vn 0.905000 -0.330400 -0.268000
vn 0.471300 -0.661700 -0.583100
vn 0.187600 -0.794700 -0.577300
vn -0.038500 -0.661700 -0.748800
vn -0.408900 -0.661700 -0.628400
vn -0.491100 -0.794700 -0.356800
vn -0.724000 -0.661700 -0.194700
vn -0.724000 -0.661700 0.194700
vn -0.491100 -0.794700 0.356800
vn -0.408900 -0.661700 0.628400
vn 0.700200 -0.661700 -0.268000
vn 0.607100 -0.794700 -0.000000
vn 0.331300 -0.943500 -0.000000
vn -0.038500 -0.661700 0.748800
vn 0.187600 -0.794700 0.577300
vn 0.471300 -0.661700 0.583100
vn 0.285100 -0.925400 -0.249600
s off
f 2/1/1 4/2/1 3/3/1
f 4/1/2 6/2/2 5/3/2
f 6/1/3 8/2/3 7/3/3
f 7/4/4 8/1/4 10/2/4
f 4/5/5 12/6/5 10/7/5
f 12/1/6 2/2/6 1/3/6
f 9/4/7 10/1/7 12/2/7
f 1/5/8 5/6/8 7/7/8
f 13/8/9 26/9/9 25/10/9
f 14/11/10 26/9/10 28/12/10
f 13/8/11 25/10/11 30/13/11
f 13/8/12 30/13/12 32/14/12
f 13/8/13 32/14/13 29/15/13
f 14/11/14 28/12/14 35/16/14
f 15/17/15 27/18/15 37/19/15
f 16/20/16 31/21/16 39/22/16
f 17/23/17 33/24/17 41/25/17
f 18/26/18 34/27/18 43/28/18
f 14/11/19 35/16/19 38/29/19
f 15/17/20 37/19/20 40/30/20
f 16/20/21 39/22/21 42/31/21
f 17/23/22 41/25/22 44/32/22
f 18/33/23 43/34/23 36/35/23
f 19/36/24 45/37/24 50/38/24
f 20/39/25 46/40/25 52/41/25
f 21/42/26 47/43/26 53/44/26
f 22/45/27 48/46/27 54/47/27
f 23/48/28 49/49/28 51/50/28
f 51/50/29 54/51/29 24/52/29
f 51/50/30 49/49/30 54/51/30
f 49/53/31 22/45/31 54/47/31
f 54/51/32 53/44/32 24/52/32
f 54/47/33 48/46/33 53/54/33
f 48/46/34 21/55/34 53/54/34
f 53/44/35 52/56/35 24/52/35
f 53/44/36 47/43/36 52/56/36
f 47/43/37 20/57/37 52/56/37
f 52/56/38 50/58/38 24/52/38
f 52/41/39 46/40/39 50/38/39
f 46/40/40 19/36/40 50/38/40
f 50/58/41 51/50/41 24/52/41
f 50/58/42 45/59/42 51/50/42
f 45/59/43 23/48/43 51/50/43
f 36/35/44 49/49/44 23/48/44
f 36/35/45 43/34/45 49/49/45
f 43/28/46 22/45/46 49/53/46
f 44/32/47 48/46/47 22/45/47
f 44/32/48 41/25/48 48/46/48
f 41/25/49 21/55/49 48/46/49
f 42/31/50 47/43/50 21/42/50
f 42/31/51 39/22/51 47/43/51
f 39/22/52 20/57/52 47/43/52
f 40/30/53 46/40/53 20/39/53
f 40/30/54 37/19/54 46/40/54
f 37/19/55 19/36/55 46/40/55
f 38/60/56 45/37/56 19/36/56
f 38/29/57 35/16/57 45/59/57
f 35/16/58 23/48/58 45/59/58
f 43/28/59 44/32/59 22/45/59
f 43/28/60 34/27/60 44/32/60
f 34/27/61 17/23/61 44/32/61
f 41/61/62 42/31/62 21/42/62
f 41/61/63 33/62/63 42/31/63
f 33/62/64 16/20/64 42/31/64
f 39/22/65 40/63/65 20/57/65
f 39/22/66 31/21/66 40/63/66
f 31/21/67 15/64/67 40/63/67
f 37/19/68 38/60/68 19/36/68
f 37/19/69 27/18/69 38/60/69
f 27/65/70 14/11/70 38/29/70
f 35/16/71 36/35/71 23/48/71
f 35/16/72 28/12/72 36/35/72
f 28/12/73 18/33/73 36/35/73
f 29/15/74 34/66/74 18/33/74
f 29/15/75 32/14/75 34/66/75
f 32/14/76 17/67/76 34/66/76
f 32/14/77 33/62/77 17/67/77
f 32/14/78 30/13/78 33/62/78
f 30/13/79 16/20/79 33/62/79
f 30/13/80 31/21/80 16/20/80
f 30/13/81 25/10/81 31/21/81
f 25/10/82 15/64/82 31/21/82
f 28/12/83 29/15/83 18/33/83
f 28/12/84 26/9/84 29/15/84
f 26/9/85 13/8/85 29/15/85
f 25/10/86 27/65/86 15/64/86
f 25/10/87 26/9/87 27/65/87
f 26/9/88 14/11/88 27/65/88
f 1/4/1 2/1/1 3/3/1
f 3/4/2 4/1/2 5/3/2
f 5/4/3 6/1/3 7/3/3
f 9/3/4 7/4/4 10/2/4
f 8/68/5 6/69/5 4/5/5
f 4/5/5 10/7/5 8/68/5
f 4/5/5 2/70/5 12/6/5
f 11/4/6 12/1/6 1/3/6
f 11/3/7 9/4/7 12/2/7
f 9/68/8 11/69/8 1/5/8
f 1/5/89 7/7/89 9/68/89
f 1/5/89 3/70/89 5/6/89
