# Blender v2.71 (sub 0) OBJ File: ''
# www.blender.org
o Cylinder
v -0.340195 -0.000000 0.047562
v -0.340165 -0.000000 34.091488
v -0.294619 -0.170090 0.047562
v -0.294590 -0.170090 34.091488
v -0.170105 -0.294605 0.047562
v -0.170075 -0.294605 34.091488
v -0.000015 -0.340180 0.047562
v 0.000015 -0.340180 34.091488
v 0.170075 -0.294605 0.047562
v 0.170105 -0.294605 34.091488
v 0.294590 -0.170090 0.047562
v 0.294620 -0.170090 34.091488
v 0.340165 0.000000 0.047562
v 0.340195 0.000000 34.091488
v 0.294590 0.170090 0.047562
v 0.294620 0.170090 34.091488
v 0.170075 0.294605 0.047562
v 0.170105 0.294605 34.091488
v -0.000015 0.340180 0.047562
v 0.000015 0.340180 34.091488
v -0.170105 0.294605 0.047562
v -0.170075 0.294605 34.091488
v -0.294620 0.170090 0.047562
v -0.294590 0.170090 34.091488
vt 0.000000 0.000000
vt 1.000000 0.000000
vt 1.000000 1.000000
vt 1.000000 0.500000
vt 0.250000 0.066987
vt 0.250000 0.933013
vt 0.000000 0.500000
vt 0.750000 0.933013
vt 0.000000 1.000000
vt 0.500000 1.000000
vt 0.933013 0.750000
vt 0.933013 0.250000
vt 0.750000 0.066987
vt 0.500000 0.000000
vt 0.066987 0.250000
vt 0.066987 0.750000
vn 0.965900 0.258800 -0.000000
vn 0.707100 0.707100 -0.000000
vn 0.258800 0.965900 -0.000000
vn -0.258800 0.965900 0.000000
vn -0.707100 0.707100 0.000000
vn -0.965900 0.258800 0.000000
vn -0.965900 -0.258800 0.000000
vn -0.707100 -0.707100 0.000000
vn -0.258800 -0.965900 0.000000
vn 0.258800 -0.965900 -0.000000
vn 0.000000 0.000000 -1.000000
vn 0.965900 -0.258800 -0.000000
vn 0.707100 -0.707100 -0.000000
vn 0.000000 0.000000 1.000000
vn 0.000200 0.000000 -1.000000
vn -0.000100 0.000000 -1.000000
vn 0.000100 0.000000 -1.000000
s off
f 1/1/1 2/2/1 4/3/1
f 3/1/2 4/2/2 6/3/2
f 5/1/3 6/2/3 8/3/3
f 7/1/4 8/2/4 10/3/4
f 9/1/5 10/2/5 12/3/5
f 11/1/6 12/2/6 14/3/6
f 13/1/7 14/2/7 16/3/7
f 15/1/8 16/2/8 18/3/8
f 17/1/9 18/2/9 20/3/9
f 19/1/10 20/2/10 22/3/10
f 22/4/11 14/5/11 6/6/11
f 23/1/12 24/2/12 2/3/12
f 21/1/13 22/2/13 24/3/13
f 19/7/14 23/6/14 3/8/14
f 3/9/1 1/1/1 4/3/1
f 5/9/2 3/1/2 6/3/2
f 7/9/3 5/1/3 8/3/3
f 9/9/4 7/1/4 10/3/4
f 11/9/5 9/1/5 12/3/5
f 13/9/6 11/1/6 14/3/6
f 15/9/7 13/1/7 16/3/7
f 17/9/8 15/1/8 18/3/8
f 19/9/9 17/1/9 20/3/9
f 21/9/10 19/1/10 22/3/10
f 6/6/15 4/10/15 2/8/15
f 2/8/16 24/11/16 22/4/16
f 22/4/11 20/12/11 18/13/11
f 18/13/17 16/14/17 14/5/17
f 14/5/16 12/15/16 10/7/16
f 10/7/11 8/16/11 6/6/11
f 6/6/11 2/8/11 22/4/11
f 22/4/11 18/13/11 14/5/11
f 14/5/11 10/7/11 6/6/11
f 1/9/12 23/1/12 2/3/12
f 23/9/13 21/1/13 24/3/13
f 23/6/14 1/10/14 3/8/14
f 3/8/14 5/11/14 7/4/14
f 7/4/14 9/12/14 11/13/14
f 11/13/14 13/14/14 15/5/14
f 15/5/14 17/15/14 19/7/14
f 19/7/14 21/16/14 23/6/14
f 7/4/14 19/7/14 3/8/14
f 7/4/14 11/13/14 15/5/14
f 7/4/14 15/5/14 19/7/14
